<svg xmlns="http://www.w3.org/2000/svg" viewBox="0 0 64 64">
  <!-- Background circle (coin) -->
  <circle cx="32" cy="32" r="30" fill="#10B981" stroke="#059669" stroke-width="2"/>
  <!-- Inner ring -->
  <circle cx="32" cy="32" r="24" fill="none" stroke="#A7F3D0" stroke-width="2"/>
  <!-- Seedling/sprout representing growth path -->
  <path d="M32 44 L32 28" stroke="#fff" stroke-width="3" stroke-linecap="round"/>
  <path d="M32 32 C32 32 26 28 26 22 C26 18 30 16 32 20 C34 16 38 18 38 22 C38 28 32 32 32 32" fill="#fff"/>
  <!-- Small leaves -->
  <path d="M32 36 C28 34 25 36 25 36 C25 36 28 38 32 36" fill="#A7F3D0"/>
  <path d="M32 36 C36 34 39 36 39 36 C39 36 36 38 32 36" fill="#A7F3D0"/>
</svg>
